<?xml version="1.0" standalone="no"?>
<!DOCTYPE svg PUBLIC "-//W3C//DTD SVG 20010904//EN"
 "http://www.w3.org/TR/2001/REC-SVG-20010904/DTD/svg10.dtd">
<svg version="1.0" xmlns="http://www.w3.org/2000/svg"
 width="700.000000pt" height="700.000000pt" viewBox="0 0 700.000000 700.000000"
 preserveAspectRatio="xMidYMid meet">
<metadata>
Created by potrace 1.11, written by Peter Selinger 2001-2013
</metadata>
<g transform="translate(0.000000,700.000000) scale(0.100000,-0.100000)"
fill="#000000" stroke="none">
<path d="M2404 6981 c-17 -11 -36 -34 -43 -52 -8 -23 -11 -369 -11 -1246 l0
-1213 -42 7 c-24 4 -88 7 -143 7 -88 -1 -109 -4 -160 -28 -133 -60 -206 -180
-198 -321 8 -128 106 -254 225 -290 59 -17 251 -21 292 -5 l26 10 0 -194 0
-193 -66 -43 c-82 -53 -216 -184 -277 -271 -88 -125 -150 -270 -183 -429 -16
-78 -18 -175 -18 -1205 -1 -1224 -4 -1156 58 -1224 55 -60 93 -71 253 -71
l143 0 24 -47 c31 -61 76 -104 146 -140 l55 -28 1001 -2 c928 -3 1005 -2 1048
14 70 26 137 82 175 146 l34 57 141 0 c116 0 148 4 181 19 54 25 92 68 114
127 17 46 17 114 16 1159 -1 611 -5 1126 -9 1145 -3 19 -9 49 -12 65 -20 105
-99 297 -156 379 -125 179 -280 312 -456 392 -108 49 -104 46 -119 90 -7 21
-17 48 -22 59 -6 11 -31 70 -56 130 -210 492 -571 1043 -1000 1524 -27 31
-144 151 -260 266 -217 218 -308 302 -470 437 l-65 53 0 430 c0 472 2 458 -60
490 -39 20 -69 19 -106 -4z m834 -2211 c88 -155 255 -490 248 -498 -4 -3 -112
-6 -241 -6 l-235 -1 0 70 c-1 61 -1 645 0 764 l0 45 81 -130 c45 -71 111 -181
147 -244z"/>
</g>
</svg>
